<svg width="327" height="192" viewBox="0 0 527 392" fill="none" xmlns="http://www.w3.org/2000/svg">
<g clip-path="url(#clip0)">
<path d="M31.7993 317.769C32.4476 341.965 36.5012 365.95 43.8407 389.016C44.0034 389.552 44.184 390.079 44.3597 390.614H89.292C89.2448 390.134 89.196 389.599 89.1488 389.016C86.153 354.575 103.268 147.452 123.921 111.604C122.111 114.512 28.3154 208.332 31.7993 317.769Z" fill="#E6E6E6"/>
<path d="M35.1709 389.016C35.5468 389.552 35.9373 390.087 36.3376 390.614H70.047C69.7915 390.158 69.4954 389.623 69.152 389.016C63.5837 378.967 47.1017 348.918 31.8026 317.769C15.3677 284.294 0.276992 249.549 1.54783 236.974C1.15398 239.809 -10.2234 326.269 35.1709 389.016Z" fill="#E6E6E6"/>
<path d="M179.326 267.834C179.22 268.229 179.144 268.631 179.101 269.038L146.642 286.085L139.105 281.339L130.456 291.777L142.981 301.476C143.993 302.259 145.232 302.694 146.512 302.713C147.791 302.733 149.043 302.337 150.078 301.584L183.825 277.069C185.28 277.674 186.884 277.822 188.426 277.493C189.967 277.164 191.371 276.374 192.452 275.227C193.533 274.08 194.239 272.631 194.477 271.074C194.714 269.516 194.472 267.922 193.782 266.506C193.092 265.089 191.987 263.916 190.613 263.142C189.24 262.369 187.664 262.032 186.095 262.176C184.526 262.32 183.038 262.939 181.829 263.949C180.619 264.96 179.747 266.315 179.326 267.834Z" fill="#9E616A"/>
<path d="M218.46 383.342L224.969 379.156L211.922 352.062L202.317 358.239L218.46 383.342Z" fill="#9E616A"/>
<path d="M215.434 382.284L228.251 374.042L228.251 374.041C230.418 372.648 233.049 372.173 235.565 372.72C238.082 373.266 240.279 374.79 241.672 376.957L241.843 377.222L220.858 390.718L215.434 382.284Z" fill="#2F2E41"/>
<path d="M124.694 336.802L174.652 304.816C174.652 304.816 183.831 303.93 189.34 314.787L222.612 362.58L208.417 372.186L171.496 333.849L146.161 358.905C146.161 358.905 183.488 352.784 182.226 377.399C181.224 396.933 130.137 390.232 109.091 386.634C105.094 385.982 101.289 384.457 97.9466 382.17C94.6045 379.882 91.8069 376.886 89.7524 373.396C87.4953 369.481 86.2819 365.036 88.1778 360.834C93.2333 349.628 124.694 336.802 124.694 336.802Z" fill="#2F2E41"/>
<path d="M99.9277 363.533L85.5308 360.62L89.6334 289.958L106.199 269.668L116.069 267.921C119.011 267.387 122.046 267.978 124.573 269.577C127.1 271.176 128.933 273.666 129.711 276.553L134.061 292.446C141.442 304.943 131.102 319.434 130.148 320.722L130.686 342.638L99.9277 363.533Z" fill="#0075BE"/>
<path d="M113.333 272.436L114.247 269.204C114.247 269.204 124.16 261.898 139.307 280.832L132.049 293.771L116.27 293.14L113.333 272.436Z" fill="#0075BE"/>
<path d="M136.137 247.289C138.945 258.802 127.876 259.657 114.744 262.86C101.613 266.063 91.3926 270.401 88.5844 258.889C85.7761 247.377 85.998 225.702 104.575 221.17C123.791 216.482 133.329 235.777 136.137 247.289Z" fill="#2F2E41"/>
<path d="M110.757 263.329C119.852 263.329 127.226 255.956 127.226 246.861C127.226 237.766 119.852 230.393 110.757 230.393C101.662 230.393 94.2888 237.766 94.2888 246.861C94.2888 255.956 101.662 263.329 110.757 263.329Z" fill="#9E616A"/>
<path d="M91.8887 249.801L98.2167 248.257L99.1016 239.759L101.567 247.44L104.591 246.702L105.107 241.745L106.545 246.226L129.019 240.743C127.923 236.252 125.088 232.379 121.137 229.978C117.186 227.576 112.443 226.843 107.951 227.938L104.694 228.733C102.47 229.275 100.374 230.251 98.527 231.603C96.6798 232.955 95.117 234.658 93.928 236.615C92.7389 238.571 91.9468 240.743 91.5969 243.005C91.247 245.267 91.3462 247.577 91.8887 249.801Z" fill="#2F2E41"/>
<path d="M138.961 328.298C138.565 328.401 138.178 328.536 137.803 328.7L106.907 308.961L107.293 300.063L93.9398 297.725L91.726 313.412C91.5472 314.679 91.7842 315.97 92.4016 317.091C93.019 318.212 93.9833 319.103 95.1499 319.629L133.17 336.783C133.366 338.347 134.033 339.814 135.083 340.989C136.133 342.164 137.516 342.992 139.047 343.362C140.579 343.733 142.187 343.628 143.658 343.062C145.129 342.496 146.392 341.495 147.281 340.194C148.169 338.892 148.64 337.351 148.631 335.775C148.622 334.199 148.133 332.663 147.23 331.372C146.327 330.081 145.052 329.095 143.575 328.546C142.098 327.996 140.488 327.91 138.961 328.298Z" fill="#9E616A"/>
<path d="M108.698 272.894L106.37 269.958C106.37 269.958 97.0202 266.947 91.971 279.57C86.9218 292.193 91.6554 304.501 91.6554 304.501L113.746 306.394L115.324 285.882L108.698 272.894Z" fill="#0075BE"/>
<path d="M354.5 87.8606H527V144.49H520.466V159.3L505.655 144.49H354.5V87.8606Z" fill="#E6E6E6"/>
<path d="M522.208 93.3749H359.291V138.678H522.208V93.3749Z" fill="white"/>
<path d="M450.832 106.601H372.392V108.982H450.832V106.601Z" fill="#0075BE"/>
<path d="M509.107 114.836H372.392V117.217H509.107V114.836Z" fill="#E6E6E6"/>
<path d="M508.973 123.071H372.392V125.452H508.973V123.071Z" fill="#E6E6E6"/>
<path d="M423.898 0H251.397V56.629H257.931V71.44L272.741 56.629H423.898V0Z" fill="#E6E6E6"/>
<path d="M419.106 5.51464H256.188V50.8179H419.106V5.51464Z" fill="white"/>
<path d="M349.037 19.1768H270.596V21.5573H349.037V19.1768Z" fill="#0075BE"/>
<path d="M407.312 27.4116H270.596V29.7921H407.312V27.4116Z" fill="#E6E6E6"/>
<path d="M407.178 35.6464H270.596V38.0269H407.178V35.6464Z" fill="#E6E6E6"/>
<path d="M210.343 255.24H210.038V246.875C210.038 246.239 209.913 245.609 209.669 245.022C209.426 244.434 209.069 243.901 208.62 243.451C208.17 243.001 207.636 242.645 207.049 242.401C206.461 242.158 205.832 242.033 205.196 242.033H187.472C186.836 242.033 186.207 242.158 185.619 242.401C185.032 242.645 184.498 243.001 184.048 243.451C183.599 243.901 183.242 244.434 182.999 245.022C182.755 245.609 182.63 246.239 182.63 246.875V292.77C182.63 293.406 182.755 294.035 182.999 294.623C183.242 295.21 183.599 295.744 184.048 296.193C184.498 296.643 185.032 297 185.619 297.243C186.207 297.486 186.836 297.612 187.472 297.612H205.196C205.832 297.612 206.461 297.486 207.049 297.243C207.636 297 208.17 296.643 208.62 296.193C209.069 295.744 209.426 295.21 209.669 294.623C209.913 294.035 210.038 293.406 210.038 292.77V261.195H210.343V255.24Z" fill="#3F3D56"/>
<path d="M205.391 243.293H203.078C203.184 243.553 203.225 243.836 203.196 244.117C203.167 244.397 203.07 244.666 202.913 244.9C202.756 245.133 202.543 245.325 202.295 245.457C202.046 245.59 201.769 245.659 201.487 245.659H191.333C191.052 245.659 190.774 245.59 190.526 245.457C190.277 245.325 190.065 245.133 189.908 244.9C189.75 244.666 189.653 244.397 189.625 244.117C189.596 243.836 189.636 243.553 189.743 243.293H187.582C186.623 243.293 185.703 243.674 185.025 244.352C184.347 245.03 183.966 245.949 183.966 246.908V292.736C183.966 293.211 184.06 293.681 184.241 294.12C184.423 294.559 184.689 294.957 185.025 295.293C185.361 295.629 185.759 295.895 186.198 296.077C186.637 296.258 187.107 296.352 187.582 296.352H205.391C205.866 296.352 206.336 296.258 206.775 296.077C207.214 295.895 207.612 295.629 207.948 295.293C208.284 294.957 208.55 294.559 208.732 294.12C208.914 293.681 209.007 293.211 209.007 292.736V246.908C209.007 246.434 208.914 245.963 208.732 245.525C208.55 245.086 208.284 244.687 207.948 244.352C207.612 244.016 207.214 243.749 206.775 243.568C206.336 243.386 205.866 243.293 205.391 243.293Z" fill="white"/>
<path d="M402.384 167.103H190.561V236.641H198.585V254.827L216.771 236.641H402.384V167.103Z" fill="white"/>
<path d="M197.913 256.45V237.313H189.889V166.43H403.056V237.313H217.05L197.913 256.45ZM191.234 235.968H199.257V253.204L216.493 235.968H401.711V167.775H191.234L191.234 235.968Z" fill="#3F3D56"/>
<path d="M310.458 190.651H214.137V193.574H310.458V190.651Z" fill="#0075BE"/>
<path d="M382.017 200.763H214.137V203.686H382.017V200.763Z" fill="#E6E6E6"/>
<path d="M381.852 210.875H214.137V213.798H381.852V210.875Z" fill="#E6E6E6"/>
<path d="M288.35 391.286H32.1984C32.0201 391.286 31.8491 391.216 31.723 391.09C31.597 390.963 31.5261 390.792 31.5261 390.614C31.5261 390.436 31.597 390.265 31.723 390.139C31.8491 390.013 32.0201 389.942 32.1984 389.942H288.35C288.528 389.942 288.699 390.013 288.825 390.139C288.951 390.265 289.022 390.436 289.022 390.614C289.022 390.792 288.951 390.963 288.825 391.09C288.699 391.216 288.528 391.286 288.35 391.286Z" fill="#3F3D56"/>
</g>
<defs>
<clipPath id="clip0">
<rect width="527" height="391.286" fill="white"/>
</clipPath>
</defs>
</svg>
